
<svg width="32" height="32" fill="none" xmlns="http://www.w3.org/2000/svg">
  <circle cx="16" cy="16" r="16" fill="#00c7c3"/>
  <g transform="translate(7.5, 6.5)">
    <path d="M8.94333 0.506919C8.88666 0.619535 8.43333 1.91462 7.96111 3.41617C7.47 4.89895 7.03555 6.17526 6.96 6.25034C6.88444 6.32542 5.41111 6.40051 3.67334 6.41928C1.91667 6.45682 0.5 6.53187 0.5 6.58818C0.5 6.64449 1.61444 7.48912 2.97444 8.44635C4.33444 9.42236 5.48667 10.3045 5.52445 10.4171C5.56222 10.5297 5.18444 11.9187 4.65556 13.5141C4.14556 15.1095 3.74889 16.4421 3.78667 16.4984C3.82444 16.536 4.90112 15.804 6.14778 14.8655C7.41334 13.927 8.60334 13.0824 8.77334 12.9885C9.01889 12.8572 9.66112 13.2326 11.6444 14.659C13.0422 15.6726 14.2133 16.4421 14.2322 16.3858C14.27 16.3107 13.8733 14.9593 13.3444 13.3639C12.7589 11.5621 12.4756 10.3796 12.57 10.267C12.6644 10.1544 13.8167 9.29098 15.12 8.37128C16.4233 7.43281 17.5 6.62575 17.5 6.55067C17.5 6.47559 16.0455 6.38172 14.2511 6.36295L11.0022 6.30665L10.0389 3.30354C9.51 1.67061 9.01888 0.394303 8.94333 0.506919Z" fill="white"/>
  </g>
</svg>