<svg width="159" height="159" viewBox="0 0 159 159" fill="none" xmlns="http://www.w3.org/2000/svg">
<rect width="159" height="159" rx="79.5" fill="#00E5E0"/>
<path d="M79.0112 35.0678C78.7614 35.8605 78.4031 36.9788 78.2076 37.5435L77.871 38.575L72.5505 38.6836L74.125 39.8237C74.9828 40.4535 75.808 41.0398 75.96 41.1484C76.1229 41.2461 76.3726 41.4416 76.5355 41.5827L76.8287 41.8325L76.0252 44.2755C75.58 45.622 75.2216 46.7621 75.2434 46.8055C75.2542 46.8489 75.58 46.6535 75.9709 46.382C76.8938 45.7197 78.1642 44.775 78.8591 44.2538C79.1632 44.0258 79.4781 43.8412 79.5541 43.8412C79.6301 43.8412 79.945 44.0258 80.249 44.2538C80.9439 44.775 82.2143 45.7197 83.1373 46.382C83.5282 46.6535 83.8539 46.8489 83.8648 46.8055C83.8865 46.7621 83.5282 45.622 83.083 44.2755L82.2795 41.8325L82.5726 41.5827C82.7355 41.4416 82.9853 41.2461 83.1481 41.1484C83.3001 41.0398 84.1254 40.4535 84.9832 39.8237L86.5576 38.6836L81.2371 38.575L80.9005 37.5435C80.7159 36.9788 80.3467 35.8605 80.097 35.0678C79.8364 34.286 79.5975 33.6345 79.5541 33.6345C79.5106 33.6345 79.2718 34.286 79.0112 35.0678Z" fill="#713B21"/>
<path d="M65.0801 39.8237C65.0475 39.9106 64.9064 40.3557 64.7652 40.8009L64.5046 41.6153L62.3873 41.6804L63.2016 42.2776C63.6577 42.6034 64.0269 42.9183 64.0269 42.9617C64.0269 43.016 63.9074 43.4395 63.7554 43.9064C63.6034 44.3733 63.4839 44.7967 63.4839 44.851C63.4839 44.8945 63.8531 44.6664 64.2983 44.3298C64.7435 44.0041 65.1344 43.7326 65.167 43.7326C65.1995 43.7326 65.5904 44.0041 66.0356 44.3298C66.4808 44.6664 66.85 44.8945 66.85 44.851C66.85 44.8076 66.7197 44.3841 66.5677 43.9172C66.4157 43.4503 66.3071 43.0051 66.3396 42.9291C66.3722 42.8531 66.7523 42.5274 67.1866 42.2233L67.9792 41.6696H65.8185L65.623 40.9855C65.3407 40.03 65.1561 39.6174 65.0801 39.8237Z" fill="#713B21"/>
<path d="M93.5937 40.6815L93.2897 41.6696H91.1289L91.9215 42.2233C92.3559 42.5274 92.7359 42.8531 92.7685 42.9291C92.8011 43.0051 92.6925 43.4503 92.5405 43.9172C92.3884 44.3841 92.2581 44.8076 92.2581 44.851C92.2581 44.8945 92.6273 44.6664 93.0725 44.3298C93.5177 44.0041 93.9086 43.7326 93.9412 43.7326C93.9737 43.7326 94.3646 44.0041 94.8098 44.3298C95.255 44.6664 95.6242 44.8945 95.6242 44.851C95.6242 44.7967 95.5047 44.3733 95.3527 43.9064C95.2007 43.4395 95.0813 43.016 95.0813 42.9617C95.0813 42.9183 95.4505 42.6034 95.9065 42.2776L96.7426 41.6696H94.6469L94.5058 41.3113C94.4298 41.1267 94.2995 40.7141 94.2126 40.4209C94.1366 40.1169 94.0389 39.8345 93.9846 39.7803C93.9412 39.726 93.7674 40.1277 93.5937 40.6815Z" fill="#713B21"/>
<path d="M50.1501 62.691C46.328 63.386 43.7872 66.0245 42.886 70.2266C42.6471 71.3559 42.6254 73.9075 42.8425 75.1128C43.3963 78.1857 45.0793 80.6396 47.5115 81.9317C49.5963 83.0393 52.3434 83.2347 54.6888 82.4421C57.7291 81.4106 59.9768 78.5114 60.5522 74.8956C60.7043 73.9075 60.6825 71.421 60.5088 70.4438C60.1179 68.2721 59.2275 66.5131 57.7834 65.069C56.6759 63.9614 55.9918 63.5271 54.678 63.0602C53.1795 62.539 51.6377 62.4087 50.1501 62.691ZM52.7343 65.3513C55.7529 65.8399 57.6205 68.663 57.6205 72.7457C57.6205 75.3408 56.9473 77.3279 55.6226 78.6526C54.5259 79.7492 53.3315 80.2161 51.6377 80.2161C48.6625 80.2161 46.5886 78.2725 45.9371 74.8956C45.7417 73.9184 45.7199 71.8662 45.8937 70.8347C46.5235 66.9474 49.2271 64.7867 52.7343 65.3513Z" fill="#713B21"/>
<path d="M28.1948 82.6158L31.8106 82.5832C35.3721 82.5398 35.4264 82.5398 36.1322 82.2683C37.9672 81.5626 39.0422 80.4985 39.6176 78.8263C39.9542 77.8491 39.9651 76.0249 39.6611 75.0694C39.2376 73.799 38.1626 72.6046 37.0768 72.2137C36.7945 72.1159 36.5556 72.0074 36.5665 71.9748C36.5665 71.9313 36.8162 71.725 37.1094 71.497C39.0747 69.9986 39.2919 66.448 37.5329 64.4501C36.9574 63.7877 36.371 63.4077 35.4372 63.0711C34.6772 62.7996 34.5686 62.7996 31.4306 62.7562L28.1948 62.7127V82.6158ZM33.8194 65.4816C34.6337 65.6987 35.1984 66.1331 35.5241 66.8063C36.371 68.5219 35.6218 70.5306 33.9605 71.0301C33.2982 71.2256 31.17 71.2799 31.1048 71.0953C31.094 71.041 31.0831 69.7163 31.1048 68.1636L31.1374 65.3404H32.1906C32.777 65.3404 33.5045 65.4056 33.8194 65.4816ZM34.7966 73.9618C36.0996 74.3093 36.8379 75.2214 36.9574 76.6221C37.0768 78.0662 36.4905 79.1629 35.3287 79.6841C34.8292 79.9121 34.5577 79.9447 32.9507 79.9773L31.1374 80.0207L31.1048 76.9587C31.0831 75.2757 31.094 73.875 31.1157 73.8532C31.2351 73.7338 34.2754 73.8207 34.7966 73.9618Z" fill="#713B21"/>
<path d="M64.2766 69.814C64.32 77.7948 64.32 77.7513 65.1344 79.4561C65.927 81.0957 67.2409 82.1598 69.1411 82.681C70.1183 82.9524 72.9089 82.9524 73.9078 82.681C75.9166 82.138 77.491 80.7916 78.1534 79.0326C78.7397 77.4582 78.718 77.8599 78.7614 70.0312L78.8049 62.7345H75.8623V69.4665C75.8623 73.951 75.8189 76.3832 75.7428 76.7633C75.5908 77.4907 75.1022 78.5223 74.6679 79.0435C74.4724 79.2823 74.0272 79.5972 73.6038 79.8035C72.898 80.151 72.8329 80.1619 71.519 80.1619C70.2812 80.151 70.1074 80.1293 69.5645 79.8687C68.5439 79.3801 67.8815 78.5983 67.4798 77.4039C67.2409 76.6981 67.23 76.5895 67.1974 69.7054L67.1649 62.7345H64.2332L64.2766 69.814Z" fill="#713B21"/>
<path d="M83.1373 82.6592L84.462 82.6375C85.2003 82.6267 85.8627 82.6049 85.9387 82.6049C86.0581 82.6049 86.0798 81.3128 86.0473 75.1345C86.0147 68.3047 86.0256 67.6749 86.1884 67.8812C86.2753 68.0115 87.0679 69.1625 87.9474 70.4438C88.8161 71.725 90.1408 73.6578 90.89 74.7328C91.6284 75.8077 92.8445 77.5559 93.5828 78.62C94.3103 79.695 95.1899 80.9436 95.5156 81.4105C95.8413 81.8774 96.1671 82.3444 96.2214 82.4529C96.3191 82.6049 96.5471 82.6375 97.6112 82.6484L98.8816 82.6592V62.7345H96.0585V77.4473L95.5807 76.6872C95.3093 76.2638 94.2778 74.7436 93.268 73.2886C91.4221 70.6175 90.4231 69.1842 87.5891 65.0364L86.0147 62.7453L84.5814 62.7345H83.1373V82.6592Z" fill="#713B21"/>
<path d="M101.596 65.449H106.862L106.841 73.8532C106.819 78.4788 106.852 82.3552 106.895 82.4638C106.96 82.6375 107.123 82.6592 108.361 82.6592H109.74V65.449L112.205 65.4273L114.669 65.3947L114.876 64.7432C114.984 64.3849 115.169 63.7877 115.277 63.4077L115.484 62.7345H101.596V65.449Z" fill="#713B21"/>
<path d="M117.275 65.5793C118.068 67.1538 119.436 69.8357 120.316 71.5513L121.901 74.6785V82.6049H124.833V74.7762L126.396 71.7142C129.046 66.5023 130.805 62.9733 130.805 62.8539C130.805 62.7779 130.294 62.7345 129.285 62.7345H127.764L127.504 63.2991C127.363 63.614 126.95 64.4826 126.603 65.2319C126.244 65.9811 125.843 66.8063 125.723 67.0777C124.464 69.8031 123.541 71.6925 123.465 71.7142C123.41 71.7359 123.128 71.2473 122.824 70.6392C122.531 70.0203 121.543 67.9898 120.631 66.1222L118.98 62.7345H115.82L117.275 65.5793Z" fill="#713B21"/>
<path d="M37.5872 87.9255C35.3287 88.4249 33.6891 90.0971 33.0159 92.6053C32.7335 93.6586 32.7553 95.7651 33.0593 96.8618C33.3742 97.9801 33.6456 98.5231 34.2537 99.2723C34.8509 100.011 35.5458 100.51 36.4253 100.858C37.2831 101.194 39.0422 101.27 40.0194 101.01C40.7577 100.825 41.7676 100.358 41.7676 100.217C41.7676 100.163 41.6916 99.9021 41.5938 99.6197L41.4201 99.1094L40.9749 99.3483C39.0747 100.315 36.8814 100.021 35.611 98.6316C34.6554 97.5893 34.2428 96.3731 34.232 94.6032C34.2211 92.9311 34.5794 91.8127 35.5132 90.6292C36.2082 89.7388 37.2723 89.2067 38.4667 89.1416C39.4873 89.0873 40.2257 89.2176 41.0292 89.6085C41.3332 89.7605 41.6047 89.8799 41.6264 89.8799C41.6916 89.8799 41.6481 88.6204 41.5721 88.5118C41.3007 88.0775 38.6404 87.6866 37.5872 87.9255Z" fill="#713B21"/>
<path d="M47.9133 87.9906C46.5669 88.3164 45.3399 89.1959 44.6233 90.3469C43.646 91.9104 43.2551 93.702 43.5049 95.5371C43.9826 99.0443 46.1326 101.172 49.2054 101.172C50.8342 101.162 52.0503 100.684 53.1469 99.5872C54.4608 98.2733 55.0688 96.4709 54.982 94.1689C54.906 92.1167 54.3848 90.7812 53.1469 89.489C51.8005 88.0775 49.8461 87.5237 47.9133 87.9906ZM48.6408 90.564C48.5431 92.5945 48.6299 92.8659 49.8026 94.0061C50.8993 95.081 51.0622 95.4068 50.9644 96.4926C50.8993 97.2092 50.389 98.8379 50.0089 99.5437L49.7918 99.9238L49.8678 99.5437C49.9872 98.914 49.9546 96.916 49.8135 96.4274C49.6615 95.8628 49.2706 95.385 48.7059 95.081C48.2065 94.7878 47.8047 94.2341 47.631 93.5934C47.4573 92.9311 47.6418 91.8561 48.1739 90.4446C48.4128 89.8148 48.6082 89.2827 48.6082 89.261C48.6082 89.2393 48.6299 89.2285 48.6517 89.2285C48.6842 89.2285 48.6734 89.8256 48.6408 90.564Z" fill="#713B21"/>
<path d="M57.5988 94.3426C57.5771 97.8716 57.5988 100.814 57.6314 100.868C57.6748 100.934 57.968 100.988 58.2829 100.988H58.8692L58.9018 97.9801L58.9235 94.9833H62.8324V93.6803H58.9235V89.2284H60.6934C61.6598 89.2284 62.561 89.1959 62.6913 89.1633C62.8542 89.1199 62.9845 88.9353 63.093 88.5987C63.1908 88.3272 63.2668 88.0666 63.2668 88.0123C63.2668 87.9689 61.9964 87.9255 60.4436 87.9255H57.6205L57.5988 94.3426Z" fill="#713B21"/>
<path d="M65.6556 100.955H66.9586V94.9833H70.8675V93.6803H66.9586V89.2284H70.9544L71.1715 88.577L71.3996 87.9255H65.6556V100.955Z" fill="#713B21"/>
<path d="M73.7124 94.4621L73.7449 101.01L75.7537 101.042C76.8612 101.064 78.1642 101.042 78.6637 101.01L79.5541 100.934V99.7609L77.3064 99.7392L75.0479 99.7066L75.0153 98.1322C74.9936 97.2635 75.0045 96.1994 75.0479 95.7759L75.1239 94.9833L77.035 94.9616L78.9569 94.929V93.7346L77.0458 93.702C75.2434 93.6803 75.1239 93.6586 75.0696 93.4631C74.9828 93.1374 74.9719 90.0428 75.0588 89.6085L75.1239 89.2285L77.0893 89.2067L79.0546 89.1742L79.1306 88.9027C79.174 88.7507 79.2609 88.4684 79.326 88.2729L79.4346 87.9255H73.6906L73.7124 94.4621Z" fill="#713B21"/>
<path d="M82.16 101.064H84.5923C85.9278 101.064 87.2417 101.031 87.524 100.999L88.0235 100.923V99.7609H83.463V94.9833H87.372V93.6803H83.463V89.2284H87.4588L87.676 88.5769L87.904 87.9255H82.16V101.064Z" fill="#713B21"/>
<path d="M94.6469 94.4295C94.6469 99.5329 94.6795 100.944 94.7881 100.988C95.103 101.107 98.7405 100.966 99.2834 100.814C100.304 100.521 101.173 99.7935 101.553 98.9248C101.813 98.295 101.878 96.8835 101.661 96.156C101.433 95.3742 100.706 94.5381 100.076 94.3318C99.62 94.1798 99.4028 94.006 99.6743 94.006C99.8589 94.006 100.543 93.2786 100.76 92.8442C101.064 92.2579 101.173 91.4327 101.053 90.6617C100.836 89.3587 100.119 88.5227 98.8708 88.1318C98.3387 87.9689 97.8718 87.9255 96.4277 87.9255H94.6469V94.4295ZM98.5776 89.3696C99.3485 89.6953 99.7286 90.3794 99.7286 91.4001C99.7286 92.3665 99.4354 92.9419 98.7188 93.3654C98.3604 93.5826 98.0998 93.626 97.1769 93.6586L96.0585 93.702V89.0873L97.1226 89.1416C97.7198 89.1742 98.3496 89.2719 98.5776 89.3696ZM99.1639 95.1896C100.977 96.0148 100.88 98.9574 99.0228 99.5872C98.6753 99.7066 98.1216 99.7609 97.2855 99.7609H96.0585V94.9833H97.3941C98.4473 94.9833 98.8056 95.0267 99.1639 95.1896Z" fill="#713B21"/>
<path d="M107.373 88.5444C107.253 88.8919 106.852 90.032 106.504 91.0743C106.146 92.1167 105.31 94.5598 104.636 96.5034C103.366 100.174 103.116 100.944 103.149 100.966C103.16 100.966 103.453 100.999 103.79 101.02C104.539 101.075 104.495 101.151 105.19 98.9683L105.668 97.4807H110.456L111.032 99.2071L111.607 100.923L112.27 100.988C112.639 101.02 112.965 101.031 112.986 100.999C113.041 100.955 112.78 100.065 112.454 99.1637C112.324 98.8054 111.781 97.2635 111.26 95.7434C110.739 94.2232 109.914 91.8453 109.436 90.4771L108.578 87.9798L107.601 87.9146L107.373 88.5444ZM109.023 93.1808C109.534 94.7553 109.957 96.1017 109.957 96.1668C109.957 96.2537 109.382 96.2863 108.057 96.2863C107.014 96.2863 106.157 96.2537 106.157 96.1994C106.157 96.1125 108.035 90.3143 108.068 90.3143C108.079 90.3143 108.513 91.6064 109.023 93.1808Z" fill="#713B21"/>
<path d="M114.973 94.4512L115.006 100.988H116.2L116.233 98.1973L116.255 95.4176H116.961C117.612 95.4176 117.688 95.4393 118.035 95.7868C118.231 95.9931 118.611 96.5469 118.861 97.0138C120.044 99.1745 120.956 100.803 121.032 100.89C121.097 100.955 122.064 101.01 122.476 100.966C122.661 100.944 119.773 95.7542 119.328 95.2873C119.165 95.1244 119.056 94.9724 119.089 94.9507C119.11 94.9398 119.306 94.8421 119.523 94.7444C119.74 94.6467 120.099 94.4078 120.316 94.2124C121.999 92.7465 121.749 89.6085 119.871 88.5009C119.121 88.0666 118.34 87.9255 116.548 87.9255H114.952L114.973 94.4512ZM118.817 89.4673C119.165 89.641 119.458 89.9016 119.675 90.2165C119.979 90.6509 120.001 90.7703 120.001 91.6172C120.001 92.3122 119.947 92.6379 119.795 92.9094C119.306 93.8106 118.448 94.2232 117.047 94.2232H116.255V91.7475C116.255 90.3794 116.287 89.2284 116.342 89.185C116.385 89.1307 116.841 89.1199 117.351 89.1524C118.046 89.185 118.416 89.261 118.817 89.4673Z" fill="#713B21"/>
<path d="M79.1957 116.113C79.1632 116.178 78.9026 116.928 78.6311 117.796C78.3488 118.654 78.0991 119.392 78.0556 119.436C78.0122 119.479 77.1653 119.523 76.1663 119.534C75.1565 119.555 74.3421 119.599 74.3421 119.631C74.3421 119.664 74.9828 120.153 75.7646 120.706C76.5463 121.271 77.2087 121.781 77.2304 121.846C77.2521 121.912 77.035 122.715 76.7309 123.638C76.4378 124.561 76.2097 125.332 76.2315 125.365C76.2532 125.386 76.8721 124.963 77.5887 124.42C78.3162 123.877 79.0003 123.388 79.098 123.334C79.2392 123.258 79.6084 123.475 80.7485 124.3C81.552 124.887 82.2252 125.332 82.236 125.299C82.2578 125.256 82.0297 124.474 81.7257 123.551C81.3891 122.509 81.2262 121.825 81.2805 121.76C81.3348 121.694 81.9972 121.195 82.7464 120.663C83.4956 120.12 84.1145 119.653 84.1145 119.61C84.1145 119.566 83.2784 119.512 82.2469 119.501L80.3793 119.469L79.8255 117.731C79.5215 116.787 79.2392 116.048 79.1957 116.113Z" fill="#713B21"/>
<path d="M89.5545 118.567L89.3047 119.306H88.5881L87.8606 119.316L88.2298 119.61C89.131 120.315 89.0658 120.163 88.8052 120.913C88.6858 121.282 88.5989 121.586 88.6315 121.586C88.6532 121.586 88.8921 121.412 89.1744 121.206C89.4459 121 89.7173 120.826 89.7825 120.826C89.8476 120.826 90.1299 121 90.4231 121.217C91.0095 121.64 91.0312 121.618 90.7923 120.934C90.5534 120.25 90.586 120.153 91.194 119.74L91.7587 119.36L91.0095 119.306L90.2711 119.251L89.7933 117.84L89.5545 118.567Z" fill="#713B21"/>
<path d="M69.2171 118.068C69.1845 118.122 69.0759 118.426 68.9782 118.73L68.7827 119.306H68.0661L67.3386 119.316L67.7078 119.61C67.9141 119.773 68.1855 119.979 68.305 120.077L68.5221 120.25L68.2833 120.891C68.153 121.238 68.077 121.542 68.0987 121.564C68.1204 121.597 68.381 121.434 68.6742 121.217C68.9673 120.999 69.2496 120.826 69.2822 120.826C69.3257 120.826 69.5863 120.999 69.8686 121.217C70.1509 121.423 70.3898 121.553 70.4006 121.51C70.4223 121.456 70.3463 121.141 70.2269 120.804L70.0206 120.196L70.6286 119.773L71.2476 119.36L70.5092 119.327C69.7057 119.295 69.7817 119.36 69.4234 118.394C69.3365 118.166 69.2496 118.013 69.2171 118.068Z" fill="#713B21"/>
<circle cx="79.5" cy="79.1179" r="73.2668" stroke="#7D3538" stroke-dasharray="6.12 3.82"/>
</svg>
