<svg aria-hidden="true" style="position: absolute; width: 0; height: 0; overflow: hidden;" version="1.1" xmlns="http://www.w3.org/2000/svg" xmlns:xlink="http://www.w3.org/1999/xlink">
<defs>
<symbol id="icon-logo" viewBox="0 0 32 32">
<path fill="#fff" style="fill: var(--color1, #fff)" d="M16 0c8.837 0 16 7.163 16 16s-7.163 16-16 16c-8.837 0-16-7.163-16-16s7.163-16 16-16z"></path>
<path fill="#00c7c3" style="fill: var(--color2, #00c7c3)" d="M15.916 8.399c-0.043 0.136-0.104 0.327-0.138 0.424l-0.058 0.176-0.91 0.019 0.269 0.195c0.147 0.108 0.288 0.208 0.314 0.227 0.028 0.017 0.071 0.050 0.098 0.074l0.050 0.043-0.137 0.418c-0.076 0.23-0.138 0.425-0.134 0.433 0.002 0.007 0.058-0.026 0.124-0.072 0.158-0.113 0.375-0.275 0.494-0.364 0.052-0.039 0.106-0.071 0.119-0.071s0.067 0.032 0.119 0.071c0.119 0.089 0.336 0.251 0.494 0.364 0.067 0.046 0.123 0.080 0.124 0.072 0.004-0.007-0.058-0.202-0.134-0.433l-0.137-0.418 0.050-0.043c0.028-0.024 0.071-0.058 0.098-0.074 0.026-0.019 0.167-0.119 0.314-0.227l0.269-0.195-0.91-0.019-0.058-0.176c-0.032-0.097-0.095-0.288-0.138-0.424-0.045-0.134-0.085-0.245-0.093-0.245s-0.048 0.111-0.093 0.245z"></path>
<path fill="#00c7c3" style="fill: var(--color2, #00c7c3)" d="M13.533 9.213c-0.006 0.015-0.030 0.091-0.054 0.167l-0.045 0.139-0.362 0.011 0.139 0.102c0.078 0.056 0.141 0.11 0.141 0.117 0 0.009-0.020 0.082-0.046 0.162s-0.046 0.152-0.046 0.162c0 0.007 0.063-0.032 0.139-0.089 0.076-0.056 0.143-0.102 0.149-0.102s0.072 0.046 0.149 0.102c0.076 0.058 0.139 0.097 0.139 0.089s-0.022-0.080-0.048-0.16c-0.026-0.080-0.045-0.156-0.039-0.169s0.071-0.069 0.145-0.121l0.136-0.095h-0.37l-0.033-0.117c-0.048-0.163-0.080-0.234-0.093-0.199z"></path>
<path fill="#00c7c3" style="fill: var(--color2, #00c7c3)" d="M18.411 9.359l-0.052 0.169h-0.37l0.136 0.095c0.074 0.052 0.139 0.108 0.145 0.121s-0.013 0.089-0.039 0.169c-0.026 0.080-0.048 0.152-0.048 0.16s0.063-0.032 0.139-0.089c0.076-0.056 0.143-0.102 0.149-0.102s0.072 0.046 0.149 0.102c0.076 0.058 0.139 0.097 0.139 0.089 0-0.009-0.020-0.082-0.046-0.162s-0.046-0.152-0.046-0.162c0-0.007 0.063-0.061 0.141-0.117l0.143-0.104h-0.358l-0.024-0.061c-0.013-0.032-0.035-0.102-0.050-0.152-0.013-0.052-0.030-0.1-0.039-0.11-0.007-0.009-0.037 0.059-0.067 0.154z"></path>
<path fill="#00c7c3" style="fill: var(--color2, #00c7c3)" d="M10.979 13.125c-0.654 0.119-1.088 0.57-1.243 1.289-0.041 0.193-0.045 0.63-0.007 0.836 0.095 0.526 0.383 0.945 0.799 1.167 0.357 0.19 0.827 0.223 1.228 0.087 0.52-0.176 0.905-0.672 1.003-1.291 0.026-0.169 0.022-0.594-0.007-0.762-0.067-0.371-0.219-0.672-0.466-0.919-0.189-0.189-0.306-0.264-0.531-0.344-0.256-0.089-0.52-0.111-0.775-0.063zM11.421 13.58c0.516 0.084 0.836 0.567 0.836 1.265 0 0.444-0.115 0.784-0.342 1.011-0.188 0.188-0.392 0.267-0.682 0.267-0.509 0-0.864-0.332-0.975-0.91-0.033-0.167-0.037-0.518-0.007-0.695 0.108-0.665 0.57-1.035 1.17-0.938z"></path>
<path fill="#00c7c3" style="fill: var(--color2, #00c7c3)" d="M7.223 16.533l0.619-0.006c0.609-0.007 0.619-0.007 0.739-0.054 0.314-0.121 0.498-0.303 0.596-0.589 0.058-0.167 0.059-0.479 0.007-0.643-0.072-0.217-0.256-0.422-0.442-0.489-0.048-0.017-0.089-0.035-0.087-0.041 0-0.007 0.043-0.043 0.093-0.082 0.336-0.256 0.373-0.864 0.072-1.206-0.098-0.113-0.199-0.178-0.358-0.236-0.13-0.046-0.149-0.046-0.685-0.054l-0.554-0.007v3.405zM8.185 13.602c0.139 0.037 0.236 0.111 0.292 0.227 0.145 0.293 0.017 0.637-0.267 0.723-0.113 0.033-0.477 0.043-0.489 0.011-0.002-0.009-0.004-0.236 0-0.502l0.006-0.483h0.18c0.1 0 0.225 0.011 0.279 0.024zM8.353 15.053c0.223 0.059 0.349 0.215 0.37 0.455 0.020 0.247-0.080 0.435-0.279 0.524-0.085 0.039-0.132 0.045-0.407 0.050l-0.31 0.007-0.006-0.524c-0.004-0.288-0.002-0.527 0.002-0.531 0.020-0.020 0.541-0.006 0.63 0.019z"></path>
<path fill="#00c7c3" style="fill: var(--color2, #00c7c3)" d="M13.396 14.343c0.007 1.365 0.007 1.358 0.147 1.649 0.136 0.28 0.36 0.463 0.685 0.552 0.167 0.046 0.645 0.046 0.815 0 0.344-0.093 0.613-0.323 0.726-0.624 0.1-0.269 0.097-0.201 0.104-1.54l0.007-1.248h-0.503v1.152c0 0.767-0.007 1.183-0.020 1.248-0.026 0.124-0.11 0.301-0.184 0.39-0.033 0.041-0.11 0.095-0.182 0.13-0.121 0.059-0.132 0.061-0.357 0.061-0.212-0.002-0.241-0.006-0.334-0.050-0.175-0.084-0.288-0.217-0.357-0.422-0.041-0.121-0.043-0.139-0.048-1.317l-0.006-1.193h-0.502l0.007 1.211z"></path>
<path fill="#00c7c3" style="fill: var(--color2, #00c7c3)" d="M16.622 16.54l0.227-0.004c0.126-0.002 0.24-0.006 0.253-0.006 0.020 0 0.024-0.221 0.019-1.278-0.006-1.168-0.004-1.276 0.024-1.241 0.015 0.022 0.15 0.219 0.301 0.438 0.149 0.219 0.375 0.55 0.503 0.734 0.126 0.184 0.334 0.483 0.461 0.665 0.124 0.184 0.275 0.397 0.331 0.477s0.111 0.16 0.121 0.178c0.017 0.026 0.056 0.032 0.238 0.033l0.217 0.002v-3.409h-0.483v2.517l-0.082-0.13c-0.046-0.072-0.223-0.332-0.396-0.581-0.316-0.457-0.487-0.702-0.972-1.412l-0.269-0.392-0.245-0.002h-0.247v3.409z"></path>
<path fill="#00c7c3" style="fill: var(--color2, #00c7c3)" d="M19.78 13.596h0.901l-0.004 1.438c-0.004 0.791 0.002 1.454 0.009 1.473 0.011 0.030 0.039 0.033 0.251 0.033h0.236v-2.944l0.422-0.004 0.422-0.006 0.035-0.111c0.019-0.061 0.050-0.163 0.069-0.228l0.035-0.115h-2.376v0.464z"></path>
<path fill="#00c7c3" style="fill: var(--color2, #00c7c3)" d="M22.462 13.619c0.136 0.269 0.37 0.728 0.52 1.022l0.271 0.535v1.356h0.502v-1.339l0.268-0.524c0.453-0.892 0.754-1.495 0.754-1.516 0-0.013-0.087-0.020-0.26-0.020h-0.26l-0.045 0.097c-0.024 0.054-0.095 0.202-0.154 0.331-0.061 0.128-0.13 0.269-0.15 0.316-0.215 0.466-0.373 0.789-0.386 0.793-0.009 0.004-0.058-0.080-0.11-0.184-0.050-0.106-0.219-0.453-0.375-0.773l-0.282-0.58h-0.54l0.249 0.487z"></path>
<path fill="#00c7c3" style="fill: var(--color2, #00c7c3)" d="M8.83 17.441c-0.386 0.085-0.667 0.372-0.782 0.801-0.048 0.18-0.045 0.54 0.007 0.728 0.054 0.191 0.1 0.284 0.204 0.412 0.102 0.126 0.221 0.212 0.371 0.271 0.147 0.058 0.448 0.070 0.615 0.026 0.126-0.032 0.299-0.112 0.299-0.136 0-0.009-0.013-0.054-0.030-0.102l-0.030-0.087-0.076 0.041c-0.325 0.165-0.7 0.115-0.918-0.122-0.163-0.178-0.234-0.386-0.236-0.689-0.002-0.286 0.059-0.477 0.219-0.68 0.119-0.152 0.301-0.243 0.505-0.254 0.175-0.009 0.301 0.013 0.438 0.080 0.052 0.026 0.098 0.046 0.102 0.046 0.011 0 0.004-0.216-0.009-0.234-0.046-0.074-0.502-0.141-0.682-0.1z"></path>
<path fill="#00c7c3" style="fill: var(--color2, #00c7c3)" d="M10.597 17.452c-0.23 0.056-0.44 0.206-0.563 0.403-0.167 0.268-0.234 0.574-0.191 0.888 0.082 0.6 0.45 0.964 0.975 0.964 0.279-0.002 0.487-0.084 0.674-0.271 0.225-0.225 0.329-0.533 0.314-0.927-0.013-0.351-0.102-0.58-0.314-0.801-0.23-0.241-0.565-0.336-0.895-0.256zM10.721 17.893c-0.017 0.347-0.002 0.394 0.199 0.589 0.188 0.184 0.215 0.24 0.199 0.425-0.011 0.123-0.098 0.401-0.163 0.522l-0.037 0.065 0.013-0.065c0.020-0.108 0.015-0.45-0.009-0.533-0.026-0.097-0.093-0.178-0.189-0.23-0.085-0.050-0.154-0.145-0.184-0.254-0.030-0.113 0.002-0.297 0.093-0.539 0.041-0.108 0.074-0.199 0.074-0.202s0.004-0.006 0.007-0.006c0.006 0 0.004 0.102-0.002 0.228z"></path>
<path fill="#00c7c3" style="fill: var(--color2, #00c7c3)" d="M12.253 18.539c-0.004 0.604 0 1.107 0.006 1.116 0.007 0.011 0.058 0.020 0.111 0.020h0.1l0.006-0.514 0.004-0.513h0.669v-0.223h-0.669v-0.762h0.303c0.165 0 0.319-0.006 0.342-0.011 0.028-0.007 0.050-0.039 0.069-0.097 0.017-0.046 0.030-0.091 0.030-0.1 0-0.007-0.217-0.015-0.483-0.015h-0.483l-0.004 1.098z"></path>
<path fill="#00c7c3" style="fill: var(--color2, #00c7c3)" d="M13.632 19.67h0.223v-1.022h0.669v-0.223h-0.669v-0.762h0.684l0.037-0.112 0.039-0.111h-0.983v2.229z"></path>
<path fill="#00c7c3" style="fill: var(--color2, #00c7c3)" d="M15.010 18.56l0.006 1.12 0.344 0.006c0.189 0.004 0.412 0 0.498-0.006l0.152-0.013v-0.201l-0.384-0.004-0.386-0.006-0.006-0.269c-0.004-0.149-0.002-0.331 0.006-0.403l0.013-0.136 0.327-0.004 0.329-0.006v-0.204l-0.327-0.006c-0.308-0.004-0.329-0.007-0.338-0.041-0.015-0.056-0.017-0.585-0.002-0.659l0.011-0.065 0.336-0.004 0.336-0.006 0.013-0.046c0.007-0.026 0.022-0.074 0.033-0.108l0.019-0.059h-0.983l0.004 1.118z"></path>
<path fill="#00c7c3" style="fill: var(--color2, #00c7c3)" d="M16.455 19.689h0.416c0.228 0 0.453-0.006 0.502-0.011l0.085-0.013v-0.199h-0.78v-0.817h0.669v-0.223h-0.669v-0.762h0.684l0.037-0.112 0.039-0.111h-0.983v2.248z"></path>
<path fill="#00c7c3" style="fill: var(--color2, #00c7c3)" d="M18.591 18.554c0 0.873 0.006 1.114 0.024 1.122 0.054 0.020 0.676-0.004 0.769-0.030 0.175-0.050 0.323-0.175 0.388-0.323 0.045-0.108 0.056-0.349 0.019-0.474-0.039-0.134-0.164-0.277-0.271-0.312-0.078-0.026-0.115-0.056-0.069-0.056 0.032 0 0.149-0.124 0.186-0.199 0.052-0.1 0.070-0.241 0.050-0.373-0.037-0.223-0.16-0.366-0.373-0.433-0.091-0.028-0.171-0.035-0.418-0.035h-0.305v1.113zM19.264 17.688c0.132 0.056 0.197 0.173 0.197 0.347 0 0.165-0.050 0.264-0.173 0.336-0.061 0.037-0.106 0.045-0.264 0.050l-0.191 0.007v-0.789l0.182 0.009c0.102 0.006 0.21 0.022 0.249 0.039zM19.364 18.684c0.31 0.141 0.293 0.645-0.024 0.752-0.060 0.020-0.154 0.030-0.297 0.030h-0.21v-0.817h0.228c0.18 0 0.241 0.007 0.303 0.035z"></path>
<path fill="#00c7c3" style="fill: var(--color2, #00c7c3)" d="M20.768 17.547c-0.020 0.059-0.089 0.254-0.148 0.433-0.061 0.178-0.204 0.596-0.32 0.929-0.217 0.628-0.26 0.76-0.254 0.763 0.002 0 0.052 0.006 0.11 0.009 0.128 0.009 0.121 0.022 0.24-0.351l0.082-0.254h0.819l0.098 0.295 0.098 0.294 0.113 0.011c0.063 0.006 0.119 0.007 0.123 0.002 0.009-0.008-0.035-0.16-0.091-0.314-0.022-0.061-0.115-0.325-0.204-0.585s-0.23-0.667-0.312-0.901l-0.147-0.427-0.167-0.011-0.039 0.108zM21.051 18.34c0.087 0.269 0.16 0.5 0.16 0.511 0 0.015-0.098 0.020-0.325 0.020-0.178 0-0.325-0.006-0.325-0.015 0-0.015 0.321-1.007 0.327-1.007 0.002 0 0.076 0.221 0.164 0.49z"></path>
<path fill="#00c7c3" style="fill: var(--color2, #00c7c3)" d="M22.068 18.558l0.006 1.118h0.204l0.006-0.477 0.004-0.476h0.121c0.111 0 0.124 0.004 0.184 0.063 0.033 0.035 0.098 0.13 0.141 0.21 0.203 0.37 0.359 0.648 0.372 0.663 0.011 0.011 0.176 0.020 0.247 0.013 0.032-0.004-0.462-0.892-0.539-0.971-0.028-0.028-0.046-0.054-0.041-0.058 0.004-0.002 0.037-0.018 0.074-0.035s0.098-0.058 0.136-0.091c0.288-0.251 0.245-0.788-0.076-0.977-0.128-0.074-0.262-0.098-0.568-0.098h-0.273l0.004 1.116zM22.726 17.705c0.060 0.030 0.11 0.074 0.147 0.128 0.052 0.074 0.056 0.095 0.056 0.24 0 0.119-0.009 0.175-0.035 0.221-0.084 0.154-0.23 0.225-0.47 0.225h-0.136v-0.424c0-0.234 0.006-0.431 0.015-0.438 0.008-0.009 0.086-0.011 0.173-0.006 0.119 0.006 0.182 0.019 0.251 0.054z"></path>
<path fill="#00c7c3" style="fill: var(--color2, #00c7c3)" d="M15.948 22.263c-0.006 0.011-0.050 0.139-0.097 0.288-0.048 0.147-0.091 0.273-0.098 0.28s-0.152 0.015-0.323 0.017c-0.173 0.004-0.312 0.011-0.312 0.017s0.11 0.089 0.243 0.184c0.134 0.097 0.247 0.184 0.251 0.195s-0.034 0.149-0.086 0.306c-0.050 0.158-0.089 0.29-0.085 0.295 0.004 0.004 0.11-0.069 0.232-0.162 0.124-0.093 0.242-0.176 0.258-0.186 0.024-0.013 0.087 0.024 0.282 0.165 0.137 0.1 0.253 0.176 0.254 0.171 0.004-0.008-0.035-0.141-0.087-0.299-0.058-0.178-0.085-0.295-0.076-0.306s0.123-0.097 0.251-0.188c0.128-0.093 0.234-0.173 0.234-0.18s-0.143-0.017-0.319-0.019l-0.32-0.006-0.095-0.297c-0.052-0.162-0.1-0.288-0.108-0.277z"></path>
<path fill="#00c7c3" style="fill: var(--color2, #00c7c3)" d="M17.72 22.683l-0.043 0.126h-0.123l-0.124 0.002 0.063 0.050c0.154 0.121 0.143 0.095 0.098 0.223-0.020 0.063-0.035 0.115-0.030 0.115 0.004 0 0.045-0.030 0.093-0.065 0.046-0.035 0.093-0.065 0.104-0.065s0.059 0.030 0.11 0.067c0.1 0.072 0.104 0.069 0.063-0.048s-0.035-0.134 0.069-0.204l0.096-0.065-0.254-0.018-0.082-0.242-0.041 0.124z"></path>
<path fill="#00c7c3" style="fill: var(--color2, #00c7c3)" d="M14.241 22.598c-0.006 0.009-0.024 0.061-0.041 0.113l-0.033 0.098h-0.123l-0.124 0.002 0.063 0.050c0.035 0.028 0.082 0.063 0.102 0.080l0.037 0.030-0.041 0.11c-0.022 0.059-0.035 0.111-0.032 0.115 0.004 0.006 0.048-0.022 0.098-0.059s0.098-0.067 0.104-0.067c0.007 0 0.052 0.030 0.1 0.067 0.048 0.035 0.089 0.058 0.091 0.050 0.004-0.009-0.009-0.063-0.030-0.121l-0.035-0.104 0.104-0.072 0.106-0.071-0.126-0.006c-0.137-0.006-0.124 0.006-0.186-0.16-0.015-0.039-0.030-0.065-0.035-0.056z"></path>
</symbol>
<symbol id="icon-arrow-down" viewBox="0 0 51 32">
<path fill="none" stroke="#fff" style="stroke: var(--color1, #fff)" stroke-linejoin="miter" stroke-linecap="round" stroke-miterlimit="4" stroke-width="6.4" d="M6.4 6.4l17.948 17.948c0.692 0.692 1.813 0.692 2.504 0l17.948-17.948"></path>
</symbol>
<symbol id="icon-arrow-right" viewBox="0 0 20 32">
<path fill="none" stroke="#fff" style="stroke: var(--color1, #fff)" stroke-linejoin="miter" stroke-linecap="round" stroke-miterlimit="4" stroke-width="4" d="M4 28l11.217-11.217c0.432-0.432 0.432-1.133 0-1.565l-11.217-11.217"></path>
</symbol>
</defs>
</svg>



