<svg aria-hidden="true" style="position: absolute; width: 0; height: 0; overflow: hidden;" version="1.1" xmlns="http://www.w3.org/2000/svg" xmlns:xlink="http://www.w3.org/1999/xlink">
<defs>
<symbol id="icon-dot" viewBox="0 0 32 32">
<path fill="#fff" style="fill: var(--color1, #fff)" d="M32 16c0 8.837-7.163 16-16 16s-16-7.163-16-16c0-8.837 7.163-16 16-16s16 7.163 16 16z"></path>
</symbol>
<symbol id="icon-logo" viewBox="0 0 32 32">
<path fill="#00e5e0" style="fill: var(--color2, #00e5e0)" d="M16 0c8.837 0 16 7.163 16 16s-7.163 16-16 16c-8.837 0-16-7.163-16-16s7.163-16 16-16z"></path>
<path fill="#713b21" style="fill: var(--color3, #713b21)" d="M15.902 7.058c-0.050 0.16-0.122 0.385-0.162 0.498l-0.068 0.208-1.071 0.022 0.317 0.229c0.173 0.127 0.339 0.245 0.369 0.267 0.033 0.020 0.083 0.059 0.116 0.087l0.059 0.050-0.162 0.492c-0.090 0.271-0.162 0.5-0.157 0.509 0.002 0.009 0.068-0.031 0.146-0.085 0.186-0.133 0.441-0.323 0.581-0.428 0.061-0.046 0.125-0.083 0.14-0.083s0.079 0.037 0.14 0.083c0.14 0.105 0.396 0.295 0.581 0.428 0.079 0.055 0.144 0.094 0.146 0.085 0.004-0.009-0.068-0.238-0.157-0.509l-0.162-0.492 0.059-0.050c0.033-0.028 0.083-0.068 0.116-0.087 0.031-0.022 0.197-0.14 0.369-0.267l0.317-0.229-1.071-0.022-0.068-0.208c-0.037-0.114-0.111-0.339-0.162-0.498-0.052-0.157-0.101-0.288-0.109-0.288s-0.057 0.131-0.109 0.288z"></path>
<path fill="#713b21" style="fill: var(--color3, #713b21)" d="M13.098 8.015c-0.007 0.018-0.035 0.107-0.063 0.197l-0.052 0.164-0.426 0.013 0.164 0.12c0.092 0.066 0.166 0.129 0.166 0.138 0 0.011-0.024 0.096-0.055 0.19s-0.055 0.179-0.055 0.19c0 0.009 0.074-0.037 0.164-0.105 0.090-0.066 0.168-0.12 0.175-0.12s0.085 0.055 0.175 0.12c0.090 0.068 0.164 0.114 0.164 0.105s-0.026-0.094-0.057-0.188c-0.031-0.094-0.052-0.184-0.046-0.199s0.083-0.081 0.17-0.142l0.16-0.111h-0.435l-0.039-0.138c-0.057-0.192-0.094-0.275-0.109-0.234z"></path>
<path fill="#713b21" style="fill: var(--color3, #713b21)" d="M18.836 8.187l-0.061 0.199h-0.435l0.16 0.111c0.087 0.061 0.164 0.127 0.17 0.142s-0.015 0.105-0.046 0.199c-0.031 0.094-0.057 0.179-0.057 0.188s0.074-0.037 0.164-0.105c0.090-0.066 0.168-0.12 0.175-0.12s0.085 0.055 0.175 0.12c0.090 0.068 0.164 0.114 0.164 0.105 0-0.011-0.024-0.096-0.055-0.19s-0.055-0.179-0.055-0.19c0-0.009 0.074-0.072 0.166-0.138l0.168-0.122h-0.422l-0.028-0.072c-0.015-0.037-0.042-0.12-0.059-0.179-0.015-0.061-0.035-0.118-0.046-0.129-0.009-0.011-0.044 0.070-0.079 0.181z"></path>
<path fill="#713b21" style="fill: var(--color3, #713b21)" d="M10.093 12.617c-0.769 0.14-1.281 0.671-1.462 1.517-0.048 0.227-0.052 0.741-0.009 0.983 0.111 0.618 0.45 1.112 0.94 1.372 0.42 0.223 0.972 0.262 1.444 0.103 0.612-0.208 1.064-0.791 1.18-1.519 0.031-0.199 0.026-0.699-0.009-0.896-0.079-0.437-0.258-0.791-0.549-1.082-0.223-0.223-0.361-0.31-0.625-0.404-0.302-0.105-0.612-0.131-0.911-0.074zM10.613 13.152c0.608 0.098 0.983 0.666 0.983 1.488 0 0.522-0.136 0.922-0.402 1.189-0.221 0.221-0.461 0.315-0.802 0.315-0.599 0-1.016-0.391-1.147-1.071-0.039-0.197-0.044-0.61-0.009-0.817 0.127-0.782 0.671-1.217 1.377-1.104z"></path>
<path fill="#713b21" style="fill: var(--color3, #713b21)" d="M5.674 16.627l0.728-0.007c0.717-0.009 0.728-0.009 0.87-0.063 0.369-0.142 0.586-0.356 0.701-0.693 0.068-0.197 0.070-0.564 0.009-0.756-0.085-0.256-0.302-0.496-0.52-0.575-0.057-0.020-0.105-0.042-0.103-0.048 0-0.009 0.050-0.050 0.109-0.096 0.396-0.302 0.439-1.016 0.085-1.418-0.116-0.133-0.234-0.21-0.422-0.278-0.153-0.055-0.175-0.055-0.806-0.063l-0.651-0.009v4.006zM6.806 13.179c0.164 0.044 0.278 0.131 0.343 0.267 0.17 0.345 0.020 0.75-0.315 0.85-0.133 0.039-0.562 0.050-0.575 0.013-0.002-0.011-0.004-0.278 0-0.59l0.007-0.568h0.212c0.118 0 0.264 0.013 0.328 0.028zM7.003 14.885c0.262 0.070 0.411 0.254 0.435 0.535 0.024 0.291-0.094 0.511-0.328 0.616-0.101 0.046-0.155 0.052-0.479 0.059l-0.365 0.009-0.007-0.616c-0.004-0.339-0.002-0.621 0.002-0.625 0.024-0.024 0.636-0.007 0.741 0.022z"></path>
<path fill="#713b21" style="fill: var(--color3, #713b21)" d="M12.936 14.051c0.009 1.606 0.009 1.597 0.173 1.941 0.16 0.33 0.424 0.544 0.806 0.649 0.197 0.055 0.758 0.055 0.959 0 0.404-0.109 0.721-0.38 0.854-0.734 0.118-0.317 0.114-0.236 0.122-1.812l0.009-1.469h-0.592v1.355c0 0.903-0.009 1.392-0.024 1.469-0.031 0.146-0.129 0.354-0.216 0.459-0.039 0.048-0.129 0.111-0.214 0.153-0.142 0.070-0.155 0.072-0.42 0.072-0.249-0.002-0.284-0.007-0.393-0.059-0.205-0.098-0.339-0.256-0.42-0.496-0.048-0.142-0.050-0.164-0.057-1.549l-0.007-1.403h-0.59l0.009 1.425z"></path>
<path fill="#713b21" style="fill: var(--color3, #713b21)" d="M16.732 16.636l0.267-0.004c0.149-0.002 0.282-0.007 0.297-0.007 0.024 0 0.028-0.26 0.022-1.503-0.007-1.375-0.004-1.501 0.028-1.46 0.017 0.026 0.177 0.258 0.354 0.516 0.175 0.258 0.441 0.647 0.592 0.863 0.149 0.216 0.393 0.568 0.542 0.782 0.146 0.216 0.323 0.468 0.389 0.562s0.131 0.188 0.142 0.21c0.020 0.031 0.066 0.037 0.28 0.039l0.256 0.002v-4.010h-0.568v2.961l-0.096-0.153c-0.055-0.085-0.262-0.391-0.465-0.684-0.372-0.538-0.573-0.826-1.143-1.661l-0.317-0.461-0.288-0.002h-0.291v4.010z"></path>
<path fill="#713b21" style="fill: var(--color3, #713b21)" d="M20.447 13.172h1.060l-0.004 1.691c-0.004 0.931 0.002 1.711 0.011 1.733 0.013 0.035 0.046 0.039 0.295 0.039h0.278v-3.464l0.496-0.004 0.496-0.007 0.042-0.131c0.022-0.072 0.059-0.192 0.081-0.269l0.042-0.136h-2.795v0.546z"></path>
<path fill="#713b21" style="fill: var(--color3, #713b21)" d="M23.603 13.198c0.16 0.317 0.435 0.857 0.612 1.202l0.319 0.629v1.595h0.59v-1.576l0.315-0.616c0.533-1.049 0.887-1.759 0.887-1.783 0-0.015-0.103-0.024-0.306-0.024h-0.306l-0.052 0.114c-0.028 0.063-0.111 0.238-0.181 0.389-0.072 0.151-0.153 0.317-0.177 0.371-0.253 0.549-0.439 0.929-0.454 0.933-0.011 0.004-0.068-0.094-0.129-0.216-0.059-0.125-0.258-0.533-0.441-0.909l-0.332-0.682h-0.636l0.293 0.573z"></path>
<path fill="#713b21" style="fill: var(--color3, #713b21)" d="M7.565 17.696c-0.455 0.101-0.785 0.437-0.92 0.942-0.057 0.212-0.052 0.636 0.009 0.857 0.063 0.225 0.118 0.334 0.24 0.485 0.12 0.149 0.26 0.249 0.437 0.319 0.173 0.068 0.527 0.083 0.723 0.031 0.149-0.037 0.352-0.131 0.352-0.16 0-0.011-0.015-0.063-0.035-0.12l-0.035-0.103-0.090 0.048c-0.382 0.195-0.824 0.135-1.080-0.144-0.192-0.21-0.275-0.455-0.278-0.811-0.002-0.337 0.070-0.562 0.258-0.8 0.14-0.179 0.354-0.286 0.594-0.299 0.205-0.011 0.354 0.015 0.516 0.094 0.061 0.031 0.116 0.055 0.12 0.055 0.013 0 0.004-0.253-0.011-0.275-0.055-0.087-0.59-0.166-0.802-0.118z"></path>
<path fill="#713b21" style="fill: var(--color3, #713b21)" d="M9.643 17.709c-0.271 0.066-0.518 0.243-0.662 0.474-0.197 0.315-0.275 0.675-0.225 1.045 0.096 0.706 0.529 1.134 1.147 1.134 0.328-0.002 0.573-0.098 0.793-0.319 0.264-0.264 0.387-0.627 0.369-1.090-0.015-0.413-0.12-0.682-0.369-0.942-0.271-0.284-0.664-0.396-1.053-0.302zM9.789 18.227c-0.020 0.409-0.002 0.463 0.234 0.693 0.221 0.216 0.254 0.282 0.234 0.5-0.013 0.144-0.116 0.472-0.192 0.614l-0.044 0.076 0.015-0.076c0.024-0.127 0.017-0.529-0.011-0.627-0.031-0.114-0.109-0.21-0.223-0.271-0.101-0.059-0.181-0.17-0.216-0.299-0.035-0.133 0.002-0.35 0.109-0.634 0.048-0.127 0.087-0.234 0.087-0.238s0.004-0.007 0.009-0.007c0.007 0 0.004 0.12-0.002 0.269z"></path>
<path fill="#713b21" style="fill: var(--color3, #713b21)" d="M11.592 18.987c-0.004 0.71 0 1.302 0.007 1.313 0.009 0.013 0.068 0.024 0.131 0.024h0.118l0.007-0.605 0.004-0.603h0.787v-0.262h-0.787v-0.896h0.356c0.194 0 0.376-0.007 0.402-0.013 0.033-0.009 0.059-0.046 0.081-0.114 0.020-0.055 0.035-0.107 0.035-0.118 0-0.009-0.256-0.017-0.568-0.017h-0.568l-0.004 1.291z"></path>
<path fill="#713b21" style="fill: var(--color3, #713b21)" d="M13.214 20.318h0.262v-1.202h0.787v-0.262h-0.787v-0.896h0.804l0.044-0.131 0.046-0.131h-1.156v2.622z"></path>
<path fill="#713b21" style="fill: var(--color3, #713b21)" d="M14.835 19.011l0.007 1.318 0.404 0.006c0.223 0.004 0.485 0 0.586-0.006l0.179-0.015v-0.236l-0.452-0.004-0.455-0.007-0.007-0.317c-0.004-0.175-0.002-0.389 0.007-0.474l0.015-0.16 0.385-0.004 0.387-0.007v-0.24l-0.385-0.007c-0.363-0.004-0.387-0.009-0.398-0.048-0.017-0.066-0.020-0.688-0.002-0.776l0.013-0.076 0.396-0.004 0.396-0.007 0.015-0.055c0.009-0.031 0.026-0.087 0.039-0.127l0.022-0.070h-1.156l0.004 1.316z"></path>
<path fill="#713b21" style="fill: var(--color3, #713b21)" d="M16.535 20.34h0.49c0.269 0 0.533-0.007 0.59-0.013l0.101-0.015v-0.234h-0.918v-0.962h0.787v-0.262h-0.787v-0.896h0.804l0.044-0.131 0.046-0.131h-1.156v2.644z"></path>
<path fill="#713b21" style="fill: var(--color3, #713b21)" d="M19.048 19.005c0 1.027 0.007 1.311 0.028 1.32 0.063 0.024 0.795-0.004 0.905-0.035 0.205-0.059 0.38-0.205 0.457-0.38 0.052-0.127 0.065-0.411 0.022-0.557-0.046-0.157-0.192-0.326-0.319-0.367-0.092-0.031-0.136-0.066-0.081-0.066 0.037 0 0.175-0.146 0.218-0.234 0.061-0.118 0.083-0.284 0.059-0.439-0.044-0.262-0.188-0.43-0.439-0.509-0.107-0.033-0.201-0.042-0.492-0.042h-0.358v1.309zM19.84 17.986c0.155 0.066 0.232 0.203 0.232 0.409 0 0.195-0.059 0.31-0.203 0.396-0.072 0.044-0.125 0.052-0.31 0.059l-0.225 0.009v-0.929l0.214 0.011c0.12 0.007 0.247 0.026 0.293 0.046zM19.957 19.158c0.365 0.166 0.345 0.758-0.028 0.885-0.070 0.024-0.181 0.035-0.35 0.035h-0.247v-0.962h0.269c0.212 0 0.284 0.009 0.356 0.042z"></path>
<path fill="#713b21" style="fill: var(--color3, #713b21)" d="M21.61 17.82c-0.024 0.070-0.105 0.299-0.175 0.509-0.072 0.21-0.24 0.701-0.376 1.093-0.256 0.739-0.306 0.894-0.299 0.898 0.002 0 0.061 0.007 0.129 0.011 0.151 0.011 0.142 0.026 0.282-0.413l0.096-0.299h0.964l0.116 0.347 0.116 0.345 0.133 0.013c0.074 0.006 0.14 0.009 0.144 0.002 0.011-0.009-0.041-0.188-0.107-0.369-0.026-0.072-0.135-0.382-0.24-0.688s-0.271-0.785-0.367-1.060l-0.173-0.503-0.197-0.013-0.046 0.127zM21.942 18.753c0.103 0.317 0.188 0.588 0.188 0.601 0 0.017-0.116 0.024-0.382 0.024-0.21 0-0.382-0.007-0.382-0.017 0-0.017 0.378-1.184 0.385-1.184 0.002 0 0.090 0.26 0.192 0.577z"></path>
<path fill="#713b21" style="fill: var(--color3, #713b21)" d="M23.139 19.009l0.007 1.316h0.24l0.007-0.562 0.004-0.559h0.142c0.131 0 0.146 0.004 0.216 0.074 0.039 0.042 0.116 0.153 0.166 0.247 0.238 0.435 0.422 0.763 0.437 0.78 0.013 0.013 0.208 0.024 0.291 0.015 0.037-0.004-0.544-1.049-0.634-1.143-0.033-0.033-0.055-0.063-0.048-0.068 0.004-0.002 0.044-0.022 0.087-0.042s0.116-0.068 0.16-0.107c0.339-0.295 0.288-0.927-0.090-1.149-0.151-0.087-0.308-0.116-0.669-0.116h-0.321l0.004 1.313zM23.913 18.006c0.070 0.035 0.129 0.087 0.173 0.151 0.061 0.087 0.066 0.111 0.066 0.282 0 0.14-0.011 0.205-0.041 0.26-0.098 0.181-0.271 0.264-0.553 0.264h-0.159v-0.498c0-0.275 0.006-0.507 0.017-0.516 0.009-0.011 0.1-0.013 0.203-0.007 0.14 0.007 0.214 0.022 0.295 0.063z"></path>
<path fill="#713b21" style="fill: var(--color3, #713b21)" d="M15.939 23.369c-0.007 0.013-0.059 0.164-0.114 0.339-0.057 0.173-0.107 0.321-0.116 0.33s-0.179 0.017-0.38 0.020c-0.203 0.004-0.367 0.013-0.367 0.020s0.129 0.105 0.286 0.216c0.157 0.114 0.291 0.216 0.295 0.229s-0.039 0.175-0.101 0.361c-0.059 0.186-0.105 0.341-0.101 0.348 0.004 0.004 0.129-0.081 0.273-0.19 0.146-0.109 0.284-0.208 0.304-0.219 0.028-0.015 0.103 0.028 0.332 0.194 0.162 0.118 0.297 0.208 0.299 0.201 0.004-0.009-0.042-0.166-0.103-0.352-0.068-0.21-0.101-0.347-0.090-0.36s0.144-0.114 0.295-0.221c0.151-0.109 0.275-0.203 0.275-0.212s-0.168-0.020-0.376-0.022l-0.376-0.006-0.111-0.35c-0.061-0.19-0.118-0.339-0.127-0.326z"></path>
<path fill="#713b21" style="fill: var(--color3, #713b21)" d="M18.024 23.863l-0.050 0.149h-0.144l-0.146 0.002 0.074 0.059c0.181 0.142 0.168 0.111 0.116 0.262-0.024 0.074-0.042 0.135-0.035 0.135 0.004 0 0.052-0.035 0.109-0.076 0.055-0.041 0.109-0.076 0.122-0.076s0.070 0.035 0.129 0.079c0.118 0.085 0.122 0.081 0.074-0.057s-0.042-0.157 0.081-0.24l0.114-0.076-0.151-0.011-0.149-0.011-0.096-0.284-0.048 0.146z"></path>
<path fill="#713b21" style="fill: var(--color3, #713b21)" d="M13.931 23.762c-0.007 0.011-0.028 0.072-0.048 0.133l-0.039 0.116h-0.144l-0.146 0.002 0.074 0.059c0.042 0.033 0.096 0.074 0.12 0.094l0.044 0.035-0.048 0.129c-0.026 0.070-0.042 0.131-0.037 0.135 0.004 0.007 0.057-0.026 0.116-0.070s0.116-0.079 0.122-0.079c0.009 0 0.061 0.035 0.118 0.079 0.057 0.041 0.105 0.068 0.107 0.059 0.004-0.011-0.011-0.074-0.035-0.142l-0.042-0.122 0.122-0.085 0.125-0.083-0.149-0.007c-0.162-0.006-0.146 0.007-0.219-0.188-0.018-0.046-0.035-0.077-0.042-0.066z"></path>
<circle cx="79.5" cy="79.1179" r="73.2668" stroke="#7D3538" stroke-dasharray="6.12 3.82"/>
</symbol>
</defs>
</svg>



